<?xml version="1.0" encoding="UTF-8" standalone="no"?>
<!-- Created with Inkscape (http://www.inkscape.org/) -->
<svg xmlns:inkscape="http://www.inkscape.org/namespaces/inkscape" xmlns:rdf="http://www.w3.org/1999/02/22-rdf-syntax-ns#" xmlns="http://www.w3.org/2000/svg" xmlns:cc="http://web.resource.org/cc/" xmlns:dc="http://purl.org/dc/elements/1.1/" xmlns:svg="http://www.w3.org/2000/svg" xmlns:sodipodi="http://sodipodi.sourceforge.net/DTD/sodipodi-0.dtd" xmlns:ns1="http://sozi.baierouge.fr" xmlns:xlink="http://www.w3.org/1999/xlink" id="svg2" viewBox="0 0 720 720" version="1.1">
  <path id="path2983" style="stroke: red; stroke-width: 2px; fill: none; display: none" d="m329.69 144.95s-9.3692-18.562-37.653-6.364"></path>
  <g id="g2912" transform="matrix(1.7013 0 0 1.7013 -232.12 -236.3)">
    <path id="path2860" style="fill: red" d="m349.69 350.5c31.945-18.487 53.437-52.999 53.437-92.563-2e-13 -39.563-21.492-74.107-53.438-92.594-31.947 18.486-53.469 53.029-53.469 92.594 5e-13 39.565 21.522 74.076 53.469 92.563z"></path>
    <path id="path2868" style="fill: #ff0" d="m349.69 350.5c31.983 18.422 72.617 19.779 106.88-0.0030175s53.432-55.666 53.47-92.575c-31.983-18.424-72.659-19.791-106.92-0.0084208-34.264 19.782-53.391 55.677-53.427 92.587z"></path>
    <path id="path2870" style="fill: #0f0" d="m349.69 350.5c0.037301 36.909 19.18 72.778 53.443 92.559 34.263 19.782 74.925 18.441 106.91 0.018642-0.036229-36.91-19.19-72.82-53.454-92.602s-74.913-18.399-106.9 0.024046z"></path>
    <path id="path2872" style="fill: #0ff" d="m349.69 350.5c-31.945 18.487-53.437 52.999-53.437 92.563 7e-13 39.563 21.492 74.107 53.438 92.594 31.947-18.486 53.469-53.029 53.469-92.594-5e-13 -39.565-21.522-74.076-53.469-92.563z"></path>
    <path id="path2874" style="fill: #00f" d="m349.69 350.5c-31.983-18.422-72.617-19.779-106.88 0.0030175s-53.432 55.666-53.47 92.575c31.983 18.424 72.659 19.791 106.92 0.0084208 34.264-19.782 53.391-55.677 53.427-92.587z"></path>
    <path id="path2876" style="fill: #f0f" d="m349.69 350.5c-0.037301-36.909-19.18-72.778-53.443-92.559-34.263-19.782-74.925-18.441-106.91-0.018642 0.036229 36.91 19.19 72.82 53.454 92.602s74.913 18.399 106.9-0.024046z"></path>
    <path id="path2893" style="fill: red" d="m349.69 165.35c-31.947 18.486-53.469 53.029-53.469 92.594 7e-13 39.565 21.522 74.076 53.469 92.562v-185.16z"></path>
  </g>
  <metadata>
    <rdf:RDF>
      <cc:Work>
        <dc:format>image/svg+xml</dc:format>
        <dc:type rdf:resource="http://purl.org/dc/dcmitype/StillImage"></dc:type>
        <cc:license rdf:resource="http://creativecommons.org/licenses/publicdomain/"></cc:license>
        <dc:publisher>
          <cc:Agent rdf:about="http://openclipart.org/">
            <dc:title>Openclipart</dc:title>
          </cc:Agent>
        </dc:publisher>
        <dc:title>6 football petal flower</dc:title>
        <dc:date>2011-07-10T18:17:25</dc:date>
        <dc:description>6 football petal flower</dc:description>
        <dc:source>https://openclipart.org/detail/148873/6-football-petal-flower-by-10binary</dc:source>
        <dc:creator>
          <cc:Agent>
            <dc:title>10binary</dc:title>
          </cc:Agent>
        </dc:creator>
        <dc:subject>
          <rdf:Bag>
            <rdf:li>6</rdf:li>
            <rdf:li>flower</rdf:li>
            <rdf:li>football</rdf:li>
            <rdf:li>petal</rdf:li>
          </rdf:Bag>
        </dc:subject>
      </cc:Work>
      <cc:License rdf:about="http://creativecommons.org/licenses/publicdomain/">
        <cc:permits rdf:resource="http://creativecommons.org/ns#Reproduction"></cc:permits>
        <cc:permits rdf:resource="http://creativecommons.org/ns#Distribution"></cc:permits>
        <cc:permits rdf:resource="http://creativecommons.org/ns#DerivativeWorks"></cc:permits>
      </cc:License>
    </rdf:RDF>
  </metadata>
</svg>
